<?xml version="1.0" encoding="UTF-8" ?>
<svg 
    xmlns="http://www.w3.org/2000/svg" version="1.1" viewBox="0 0 50 50">
    <rect width="16" height="16" x="0.5" y="0.5" stroke-width="0.2px" fill="rgba(0,0,0,0)" stroke="#ffffff"/>
    <rect width="16" height="16" x="17" y="0.5" stroke-width="0.2px" fill="rgba(0,0,0,0)" stroke="#ffffff"/>
    <rect width="16" height="16" x="33.5" y="0.5" stroke-width="0.2px" fill="rgba(0,0,0,0)" stroke="#ffffff"/>
    <rect width="16" height="16" x="0.5" y="17" stroke-width="0.2px" fill="rgba(0,0,0,0)" stroke="#ffffff"/>
    <rect width="16" height="16" x="17" y="17" stroke-width="0.2px" fill="rgba(200,200,200,1)" stroke="#ffffff"/>
    <rect width="16" height="16" x="33.5" y="17" stroke-width="0.2px" fill="rgba(0,0,0,0)" stroke="#ffffff"/>
    <rect width="16" height="16" x="0.5" y="33.5" stroke-width="0.2px" fill="rgba(0,0,0,0)" stroke="#ffffff"/>
    <rect width="16" height="16" x="17" y="33.5" stroke-width="0.2px" fill="rgba(0,0,0,0)" stroke="#ffffff"/>
    <rect width="16" height="16" x="33.5" y="33.5" stroke-width="0.2px" fill="rgba(0,0,0,0)" stroke="#ffffff"/>
    <circle cx="24.5" cy="8.5" r="1" fill="#ffffff"/>
    <line x1="24.5" y1="8.5" x2="8.5" y2="8.5" stroke-width="0.2px" stroke="#ffffff"/>
    <line x1="12" y1="7.8" x2="8.5" y2="8.5" stroke-width="0.2px" stroke="#ffffff"/>
    <line x1="12" y1="9.2" x2="8.5" y2="8.5" stroke-width="0.2px" stroke="#ffffff"/>
    <line x1="8.5" y1="8.5" x2="8.5" y2="24.5" stroke-width="0.2px" stroke="#ffffff"/>
    <line x1="9.2" y1="21" x2="8.5" y2="24.5" stroke-width="0.2px" stroke="#ffffff"/>
    <line x1="7.8" y1="21" x2="8.5" y2="24.5" stroke-width="0.2px" stroke="#ffffff"/>
    <line x1="8.5" y1="24.5" x2="8.5" y2="40.5" stroke-width="0.2px" stroke="#ffffff"/>
    <line x1="9.2" y1="37" x2="8.5" y2="40.5" stroke-width="0.2px" stroke="#ffffff"/>
    <line x1="7.8" y1="37" x2="8.5" y2="40.5" stroke-width="0.2px" stroke="#ffffff"/>
    <line x1="8.5" y1="40.5" x2="24.5" y2="40.5" stroke-width="0.2px" stroke="#ffffff"/>
    <line x1="21" y1="41.2" x2="24.5" y2="40.5" stroke-width="0.2px" stroke="#ffffff"/>
    <line x1="21" y1="39.8" x2="24.5" y2="40.5" stroke-width="0.2px" stroke="#ffffff"/>
    <circle cx="24.5" cy="40.5" r="1" fill="#ffffff"/>
</svg>