<?xml version="1.0" encoding="UTF-8" ?>
<svg 
    xmlns="http://www.w3.org/2000/svg" version="1.1" viewBox="0 0 50 50">
    <rect width="16" height="16" x="0.5" y="0.5" stroke-width="0.2px" fill="rgba(0,0,0,0)" stroke="#ffffff"/>
    <rect width="16" height="16" x="17" y="0.5" stroke-width="0.2px" fill="rgba(0,0,0,0)" stroke="#ffffff"/>
    <rect width="16" height="16" x="33.5" y="0.5" stroke-width="0.2px" fill="rgba(0,0,0,0)" stroke="#ffffff"/>
    <rect width="16" height="16" x="0.5" y="17" stroke-width="0.2px" fill="rgba(0,0,0,0)" stroke="#ffffff"/>
    <rect width="16" height="16" x="17" y="17" stroke-width="0.2px" fill="rgba(0,0,0,0)" stroke="#ffffff"/>
    <rect width="16" height="16" x="33.5" y="17" stroke-width="0.2px" fill="rgba(0,0,0,0)" stroke="#ffffff"/>
    <rect width="16" height="16" x="0.5" y="33.5" stroke-width="0.2px" fill="rgba(0,0,0,0)" stroke="#ffffff"/>
    <rect width="16" height="16" x="17" y="33.5" stroke-width="0.2px" fill="rgba(0,0,0,0)" stroke="#ffffff"/>
    <rect width="16" height="16" x="33.5" y="33.5" stroke-width="0.2px" fill="rgba(0,0,0,0)" stroke="#ffffff"/>

    <circle fill="#ffffff" cx="41.5" cy="1" r="1"/>
    <line x1="33.3" y1="8.5" x2="41.5" y2="0.5" stroke-width="0.2px" stroke="#ffffff"/>
    <circle fill="#ffffff" cx="33.3" cy="8.5" r="1"/>
    <line x1="16.8" y1="8.5" x2="33.3" y2="8.5" stroke-width="0.2px" stroke="#ffffff"/>
    <circle fill="#ffffff" cx="16.8" cy="8.5" r="1"/>
    <line x1="16.8" y1="8.5" x2="8.5" y2="16.8" stroke-width="0.2px" stroke="#ffffff"/>
    <circle fill="#ffffff" cx="8.5" cy="16.8" r="1"/>
    <line x1="8.5" y1="16.8" x2="8.5" y2="33.3" stroke-width="0.2px" stroke="#ffffff"/>
    <circle fill="#ffffff" cx="8.5" cy="33.3" r="1"/>
    <line x1="8.5" y1="33.3" x2="16.8" y2="41.6" stroke-width="0.2px" stroke="#ffffff"/>
    <circle fill="#ffffff" cx="16.8" cy="41.6" r="1"/>
    <line x1="16.8" y1="41.6" x2="25" y2="49" stroke-width="0.2px" stroke="#ffffff"/>
    <circle fill="#ffffff" cx="25" cy="49" r="1"/>
</svg>