<?xml version="1.0" encoding="UTF-8" standalone="no"?>
<svg 
  xmlns:dc="http://purl.org/dc/elements/1.1/" 
  xmlns:cc="http://creativecommons.org/ns#" 
  xmlns:rdf="http://www.w3.org/1999/02/22-rdf-syntax-ns#" 
  xmlns:svg="http://www.w3.org/2000/svg" 
  xmlns="http://www.w3.org/2000/svg" viewBox="0 0 137 137.86667" height="137.86667" width="377.94666" xml:space="preserve" id="svg2" version="1.1">
  <metadata id="metadata8">
    <rdf:RDF>
      <cc:Work rdf:about="">
        <dc:format>image/svg+xml</dc:format>
        <dc:type rdf:resource="http://purl.org/dc/dcmitype/StillImage" />
      </cc:Work>
    </rdf:RDF>
  </metadata>
  <defs id="defs6" />
  <g transform="matrix(1.3333333,0,0,-1.3333333,0,137.86667)" id="g10">
    <g transform="scale(0.1)" id="g12">
      <path id="path14" style="fill:#ffffff;fill-opacity:1;fill-rule:nonzero;stroke:none" d="M 837.258,202.047 655.43,516.98 837.258,831.914 921.641,516.98 Z M 434.613,235.793 204.066,466.344 H 567.723 L 749.547,151.406 Z m 0,562.375 314.934,84.383 L 567.719,567.617 H 204.066 Z M 941.859,517.426 v 0 l 62.821,108.812 v 0 L 895.434,1033.96 487.695,924.707 v 0 0 0 l -0.59,-0.156 -62.984,-109.098 h -0.004 -125.644 v 0 0 L 0,516.98 298.484,218.496 v 0 l 0.434,-0.433 h 125.973 v 0 L 487.715,109.25 v 0 0 0 L 895.434,0 1004.69,407.738 v 0 0 0 l 0.16,0.59 -62.991,109.098" />
    </g>
  </g>
</svg>